<svg version="1.0" xmlns="http://www.w3.org/2000/svg" width="700.000000pt" height="700.000000pt" viewBox="0 0 700.000000 700.000000" preserveAspectRatio="xMidYMid meet">
<g transform="translate(0.000000,700.000000) scale(0.100000,-0.100000)" fill="#000000" stroke="none">
<path d="M5340 6360 c-19 -4 -58 -13 -87 -18 -268 -56 -432 -206 -606 -557
-51 -103 -64 -131 -118 -252 -11 -27 -27 -61 -35 -78 -7 -16 -25 -61 -40 -99
-14 -38 -30 -77 -34 -85 -4 -9 -18 -38 -30 -66 -42 -95 -65 -136 -105 -184
-22 -27 -65 -80 -96 -118 -31 -37 -69 -90 -85 -116 -16 -27 -36 -59 -44 -72
-8 -12 -30 -48 -48 -79 -50 -83 -122 -157 -246 -251 -61 -47 -183 -141 -271
-210 -159 -126 -240 -185 -252 -185 -4 0 -14 -6 -22 -14 -15 -13 -42 -28 -179
-101 -31 -17 -68 -38 -82 -47 -14 -8 -59 -37 -100 -63 -41 -26 -91 -58 -110
-70 -19 -13 -51 -32 -70 -42 -73 -40 -357 -225 -370 -242 -3 -4 -34 -30 -70
-58 -36 -28 -90 -77 -120 -108 -83 -86 -176 -156 -270 -205 -128 -66 -138 -71
-265 -152 -38 -25 -90 -56 -115 -69 -107 -57 -376 -271 -364 -290 9 -16 32
-10 77 21 24 16 55 34 68 40 13 5 31 14 39 20 24 16 188 90 199 90 5 0 22 7
38 15 23 12 121 51 245 97 15 5 32 7 37 3 28 -16 6 -43 -76 -95 -142 -90 -236
-148 -268 -165 -16 -8 -43 -24 -60 -35 -16 -10 -43 -26 -60 -35 -16 -8 -43
-24 -60 -35 -16 -11 -39 -24 -50 -29 -20 -8 -182 -100 -215 -122 -8 -5 -26
-15 -40 -21 -32 -16 -111 -62 -175 -103 -70 -44 -280 -181 -340 -221 -69 -46
-119 -99 -112 -118 8 -21 36 -20 60 1 15 15 34 17 98 15 58 -2 93 3 136 18 31
11 72 20 90 20 88 0 245 47 297 89 6 5 35 22 64 37 85 47 105 58 147 85 22 14
60 36 85 49 25 14 52 30 60 36 15 12 146 84 213 117 20 11 47 19 60 18 250
-11 524 -11 565 -1 26 7 76 18 112 26 103 21 183 41 210 52 86 38 365 56 431
28 19 -8 74 -37 122 -64 l88 -50 137 -7 c185 -9 251 -26 302 -77 22 -22 44
-56 49 -77 15 -56 -3 -384 -24 -445 -28 -83 -10 -177 56 -286 66 -109 127
-371 150 -643 18 -219 17 -223 -20 -260 -31 -32 -32 -32 -129 -31 -53 1 -137
3 -187 5 -88 4 -91 3 -127 -26 -21 -16 -38 -35 -38 -41 0 -6 -9 -23 -21 -37
-17 -22 -18 -30 -8 -49 12 -22 12 -22 40 13 57 69 68 78 107 90 54 16 92 -6
92 -52 0 -68 41 -87 110 -52 32 15 36 15 64 -1 19 -11 66 -21 122 -26 50 -4
101 -13 112 -19 11 -6 38 -11 60 -11 21 0 61 -7 88 -15 69 -21 101 -19 107 5
7 26 39 26 62 0 17 -19 19 -19 37 -3 16 14 41 17 149 18 l129 0 20 32 c17 29
25 33 63 33 34 0 49 -6 70 -28 15 -15 27 -37 27 -49 0 -22 23 -47 33 -36 4 3
7 25 7 48 0 33 -6 47 -33 73 -18 18 -39 32 -47 32 -7 0 -21 7 -31 16 -16 15
-33 15 -167 4 -127 -10 -164 -9 -256 5 -60 8 -125 24 -146 35 -36 18 -90 72
-90 90 0 5 -15 35 -34 67 -36 63 -49 121 -86 383 -32 232 -34 287 -16 355 38
138 50 232 52 400 2 93 5 182 8 197 7 35 94 212 136 277 36 55 111 114 138
109 26 -5 20 -267 -10 -355 -16 -48 -19 -79 -16 -145 5 -104 36 -172 122 -267
109 -121 183 -205 232 -266 27 -33 72 -88 100 -121 28 -34 68 -90 88 -125 21
-35 48 -79 62 -98 51 -71 21 -201 -49 -215 -49 -10 -70 -7 -110 14 -52 28 -95
25 -135 -9 -30 -25 -33 -33 -30 -71 3 -49 23 -64 37 -28 14 37 47 61 74 54 19
-4 26 -15 33 -48 8 -36 14 -44 41 -51 31 -9 100 6 204 44 38 15 77 -5 128 -62
43 -49 44 -50 100 -48 31 0 127 -1 213 -3 155 -5 158 -4 178 19 22 26 40 30
40 9 0 -20 29 -41 41 -29 12 12 -1 46 -30 82 -17 23 -25 25 -96 23 -66 -1 -89
3 -168 34 -51 19 -103 40 -115 47 -27 13 -67 62 -106 129 -15 27 -47 69 -70
95 -63 72 -185 229 -209 271 -12 20 -62 97 -112 170 -140 206 -136 194 -110
321 12 54 14 99 9 167 -7 99 7 190 47 304 28 78 108 172 218 254 99 74 144
128 202 241 16 33 39 74 49 90 11 17 26 44 35 60 9 17 21 39 28 50 6 11 39 67
72 124 33 57 68 116 77 132 59 98 167 309 191 374 8 22 25 74 37 115 12 41 28
91 35 110 19 50 44 134 55 183 11 50 34 127 86 287 18 57 18 113 -1 170 -36
111 -55 186 -55 218 0 19 -7 62 -16 96 -12 45 -17 112 -18 261 -1 182 1 206
21 268 31 94 81 166 191 275 81 81 229 192 256 192 5 0 17 6 25 14 28 25 123
39 291 45 142 5 165 8 168 22 3 17 -38 40 -128 72 -57 20 -233 57 -274 57 -45
0 -196 41 -234 63 -27 16 -31 22 -20 32 19 17 94 45 122 45 13 0 41 8 62 17
33 15 77 18 269 20 133 1 231 6 233 11 3 10 -120 92 -139 92 -6 0 -25 6 -42
14 -54 24 -130 47 -184 57 -29 5 -64 14 -78 19 -36 14 -139 13 -186 -2 -46
-13 -84 -4 -193 47 -138 65 -179 75 -306 74 -63 -1 -131 -5 -150 -9z"></path>
</g>
</svg>