 <svg version="1.0" xmlns="http://www.w3.org/2000/svg" width="700.000000pt" height="700.000000pt" viewBox="0 0 700.000000 700.000000" preserveAspectRatio="xMidYMid meet">
<metadata>
Created by potrace 1.12, written by Peter Selinger 2001-2015
</metadata>
<g transform="translate(0.000000,700.000000) scale(0.100000,-0.100000)" fill="#000000" stroke="none">
<path d="M865 5680 c-98 -6 -128 -11 -165 -30 -98 -51 -178 -131 -222 -220
-25 -49 -40 -164 -33 -235 22 -191 176 -346 372 -375 99 -14 5266 -14 5366 0
246 36 408 260 368 510 -22 134 -110 247 -251 319 -37 20 -68 25 -185 32 -168
10 -5078 9 -5250 -1z"></path>
<path d="M860 3930 c-94 -7 -124 -13 -166 -33 -185 -94 -276 -268 -246 -469
17 -109 71 -200 160 -269 72 -55 123 -76 212 -88 118 -16 5242 -16 5360 0 195
26 345 171 371 357 29 207 -60 375 -250 471 -36 18 -71 24 -185 31 -168 11
-5088 10 -5256 0z"></path>
<path d="M845 2179 c-76 -5 -112 -13 -151 -33 -184 -92 -275 -266 -245 -471
27 -181 178 -327 368 -355 100 -14 5266 -14 5366 0 154 23 270 110 340 259 28
59 31 73 31 170 0 122 -19 179 -87 266 -38 49 -129 125 -150 125 -6 0 -18 7
-27 15 -12 11 -55 18 -146 25 -155 11 -5152 11 -5299 -1z"></path>
</g>
</svg>